<?xml version="1.0" encoding="UTF-8"?>
<svg xmlns="http://www.w3.org/2000/svg" viewBox="0 0 110 110" role="img" aria-label="AK Garage Door Pro">
  <title>AK Garage Door Pro</title>
  <defs>
    <linearGradient id="cyanGradM" x1="0%" y1="0%" x2="100%" y2="100%">
      <stop offset="0%" stop-color="#1cdfff"/>
      <stop offset="55%" stop-color="#00d4ff"/>
      <stop offset="100%" stop-color="#4f7cff"/>
    </linearGradient>
  </defs>
  <polygon points="55,4 100,29 100,81 55,106 10,81 10,29"
           fill="#0a0f24" stroke="url(#cyanGradM)" stroke-width="3" stroke-linejoin="round"/>
  <polygon points="55,12 92,33 92,77 55,98 18,77 18,33"
           fill="none" stroke="#00d4ff" stroke-width="0.8" opacity="0.4"/>
  <rect x="32" y="36" width="46" height="46" rx="2" fill="url(#cyanGradM)"/>
  <line x1="32" y1="48" x2="78" y2="48" stroke="#0a0f24" stroke-width="1.5"/>
  <line x1="32" y1="59" x2="78" y2="59" stroke="#0a0f24" stroke-width="1.5"/>
  <line x1="32" y1="70" x2="78" y2="70" stroke="#0a0f24" stroke-width="1.5"/>
  <rect x="36" y="39" width="38" height="6" fill="#0a0f24"/>
  <line x1="46" y1="39" x2="46" y2="45" stroke="#1cdfff" stroke-width="1"/>
  <line x1="55" y1="39" x2="55" y2="45" stroke="#1cdfff" stroke-width="1"/>
  <line x1="64" y1="39" x2="64" y2="45" stroke="#1cdfff" stroke-width="1"/>
</svg>
